<svg width="20" height="21" viewBox="0 0 20 21" fill="none" xmlns="http://www.w3.org/2000/svg">
<path fill-rule="evenodd" clip-rule="evenodd" d="M10.0002 6.33333C10.9168 6.33333 11.6668 5.58333 11.6668 4.66667C11.6668 3.75 10.9168 3 10.0002 3C9.0835 3 8.3335 3.75 8.3335 4.66667C8.3335 5.58333 9.0835 6.33333 10.0002 6.33333ZM11.6668 10.5C11.6668 11.4167 10.9168 12.1667 10.0002 12.1667C9.0835 12.1667 8.3335 11.4167 8.3335 10.5C8.3335 9.58333 9.0835 8.83333 10.0002 8.83333C10.9168 8.83333 11.6668 9.58333 11.6668 10.5ZM8.3335 16.3333C8.3335 15.4167 9.0835 14.6667 10.0002 14.6667C10.9168 14.6667 11.6668 15.4167 11.6668 16.3333C11.6668 17.25 10.9168 18 10.0002 18C9.0835 18 8.3335 17.25 8.3335 16.3333Z" fill="#1F2855"/>
<mask id="mask0_170_4942" style="mask-type:alpha" maskUnits="userSpaceOnUse" x="8" y="3" width="4" height="15">
<path fill-rule="evenodd" clip-rule="evenodd" d="M10.0002 6.33333C10.9168 6.33333 11.6668 5.58333 11.6668 4.66667C11.6668 3.75 10.9168 3 10.0002 3C9.0835 3 8.3335 3.75 8.3335 4.66667C8.3335 5.58333 9.0835 6.33333 10.0002 6.33333ZM11.6668 10.5C11.6668 11.4167 10.9168 12.1667 10.0002 12.1667C9.0835 12.1667 8.3335 11.4167 8.3335 10.5C8.3335 9.58333 9.0835 8.83333 10.0002 8.83333C10.9168 8.83333 11.6668 9.58333 11.6668 10.5ZM8.3335 16.3333C8.3335 15.4167 9.0835 14.6667 10.0002 14.6667C10.9168 14.6667 11.6668 15.4167 11.6668 16.3333C11.6668 17.25 10.9168 18 10.0002 18C9.0835 18 8.3335 17.25 8.3335 16.3333Z" fill="white"/>
</mask>
<g mask="url(#mask0_170_4942)">
<rect y="0.5" width="20" height="20" fill="#1F2855"/>
</g>
</svg>
