<svg width="14" height="15" viewBox="0 0 14 15" fill="none" xmlns="http://www.w3.org/2000/svg">
<path fill-rule="evenodd" clip-rule="evenodd" d="M12.5998 5.29311L7.34984 1.21441C7.1165 1.03961 6.82484 1.03961 6.64984 1.21441L1.39984 5.29311C1.22484 5.40965 1.1665 5.58445 1.1665 5.75925V12.1686C1.1665 13.1592 1.92484 13.9166 2.9165 13.9166H11.0832C12.0748 13.9166 12.8332 13.1592 12.8332 12.1686V5.75925C12.8332 5.58445 12.7748 5.40965 12.5998 5.29311ZM8.1665 8.08993V12.7513H5.83317V8.08993H8.1665ZM11.0832 12.7513C11.4332 12.7513 11.6665 12.5182 11.6665 12.1686V6.05058L6.99984 2.43802L2.33317 6.05058V12.1686C2.33317 12.5182 2.5665 12.7513 2.9165 12.7513H4.6665V7.50726C4.6665 7.15766 4.89984 6.92459 5.24984 6.92459H8.74984C9.09984 6.92459 9.33317 7.15766 9.33317 7.50726V12.7513H11.0832Z" fill="#457B9D"/>
<mask id="mask0_170_4914" style="mask-type:alpha" maskUnits="userSpaceOnUse" x="1" y="1" width="12" height="13">
<path fill-rule="evenodd" clip-rule="evenodd" d="M12.5998 5.29311L7.34984 1.21441C7.1165 1.03961 6.82484 1.03961 6.64984 1.21441L1.39984 5.29311C1.22484 5.40965 1.1665 5.58445 1.1665 5.75925V12.1686C1.1665 13.1592 1.92484 13.9166 2.9165 13.9166H11.0832C12.0748 13.9166 12.8332 13.1592 12.8332 12.1686V5.75925C12.8332 5.58445 12.7748 5.40965 12.5998 5.29311ZM8.1665 8.08993V12.7513H5.83317V8.08993H8.1665ZM11.0832 12.7513C11.4332 12.7513 11.6665 12.5182 11.6665 12.1686V6.05058L6.99984 2.43802L2.33317 6.05058V12.1686C2.33317 12.5182 2.5665 12.7513 2.9165 12.7513H4.6665V7.50726C4.6665 7.15766 4.89984 6.92459 5.24984 6.92459H8.74984C9.09984 6.92459 9.33317 7.15766 9.33317 7.50726V12.7513H11.0832Z" fill="white"/>
</mask>
<g mask="url(#mask0_170_4914)">
<rect y="0.5" width="14" height="14" fill="#D2000F"/>
</g>
</svg>
