<svg width="21" height="21" viewBox="0 0 21 21" fill="none" xmlns="http://www.w3.org/2000/svg">
<path fill-rule="evenodd" clip-rule="evenodd" d="M19.26 2.16669C19.5933 2.16669 19.8433 2.33335 20.01 2.66669C20.1766 2.91669 20.0933 3.25002 19.9266 3.50002L13.4266 11.1667V18C13.4266 18.3334 13.26 18.5834 13.01 18.75C12.9266 18.8334 12.76 18.8334 12.5933 18.8334C12.4266 18.8334 12.3433 18.8334 12.26 18.75L8.92662 17.0834C8.59329 16.9167 8.42662 16.6667 8.42662 16.3334V11.1667L1.92662 3.50002C1.75996 3.25002 1.67662 2.91669 1.84329 2.66669C2.00996 2.33335 2.25996 2.16669 2.59329 2.16669H19.26ZM11.76 10.9167C11.76 10.6667 11.8433 10.5 11.9266 10.3334L17.51 3.83335H4.42662L9.92662 10.4167C10.01 10.5 10.0933 10.75 10.0933 10.9167V15.8334L11.76 16.6667V10.9167Z" fill="#D2000F"/>
<mask id="mask0_646_2497" style="mask-type:alpha" maskUnits="userSpaceOnUse" x="1" y="2" width="20" height="17">
<path fill-rule="evenodd" clip-rule="evenodd" d="M19.26 2.16669C19.5933 2.16669 19.8433 2.33335 20.01 2.66669C20.1766 2.91669 20.0933 3.25002 19.9266 3.50002L13.4266 11.1667V18C13.4266 18.3334 13.26 18.5834 13.01 18.75C12.9266 18.8334 12.76 18.8334 12.5933 18.8334C12.4266 18.8334 12.3433 18.8334 12.26 18.75L8.92662 17.0834C8.59329 16.9167 8.42662 16.6667 8.42662 16.3334V11.1667L1.92662 3.50002C1.75996 3.25002 1.67662 2.91669 1.84329 2.66669C2.00996 2.33335 2.25996 2.16669 2.59329 2.16669H19.26ZM11.76 10.9167C11.76 10.6667 11.8433 10.5 11.9266 10.3334L17.51 3.83335H4.42662L9.92662 10.4167C10.01 10.5 10.0933 10.75 10.0933 10.9167V15.8334L11.76 16.6667V10.9167Z" fill="white"/>
</mask>
<g mask="url(#mask0_646_2497)">
<rect x="0.918945" y="0.5" width="20" height="20" fill="#D2000F"/>
</g>
</svg>
