<svg width="28" height="39" viewBox="0 0 28 39" fill="none" xmlns="http://www.w3.org/2000/svg">
<path fill-rule="evenodd" clip-rule="evenodd" d="M19.1668 27.6666C19.1668 28.1666 18.8335 28.5 18.3335 28.5H1.66683C1.16683 28.5 0.833496 28.1666 0.833496 27.6666C0.833496 27.1666 1.16683 26.8333 1.66683 26.8333C2.5835 26.8333 3.3335 26.0833 3.3335 25.1666V21C3.3335 17.3333 6.3335 14.3333 10.0002 14.3333C13.6668 14.3333 16.6668 17.3333 16.6668 21V25.1666C16.6668 26.0833 17.4168 26.8333 18.3335 26.8333C18.8335 26.8333 19.1668 27.1666 19.1668 27.6666ZM12.1668 31.4166C11.6668 32.25 10.8335 32.6666 10.0002 32.6666C9.5835 32.6666 9.16683 32.5833 8.75016 32.3333C8.3335 32.0833 8.0835 31.8333 7.8335 31.4166C7.5835 31 7.75016 30.5 8.16683 30.25C8.5835 30 9.0835 30.1666 9.3335 30.5833C9.35872 30.6085 9.38395 30.6414 9.41149 30.6773L9.4115 30.6773C9.47493 30.7599 9.55062 30.8585 9.66683 30.9166C10.0835 31.1666 10.5835 31 10.8335 30.5833C11.0835 30.1666 11.5835 30.0833 12.0002 30.25C12.4168 30.4166 12.4168 31 12.1668 31.4166ZM15.0002 25.1666C15.0002 25.75 15.1668 26.3333 15.4168 26.8333H4.5835C4.8335 26.3333 5.00016 25.75 5.00016 25.1666V21C5.00016 18.25 7.25016 16 10.0002 16C12.7502 16 15.0002 18.25 15.0002 21V25.1666Z" fill="black"/>
<mask id="mask0_646_2456" style="mask-type:alpha" maskUnits="userSpaceOnUse" x="0" y="14" width="20" height="19">
<path fill-rule="evenodd" clip-rule="evenodd" d="M19.1668 27.6666C19.1668 28.1666 18.8335 28.5 18.3335 28.5H1.66683C1.16683 28.5 0.833496 28.1666 0.833496 27.6666C0.833496 27.1666 1.16683 26.8333 1.66683 26.8333C2.5835 26.8333 3.3335 26.0833 3.3335 25.1666V21C3.3335 17.3333 6.3335 14.3333 10.0002 14.3333C13.6668 14.3333 16.6668 17.3333 16.6668 21V25.1666C16.6668 26.0833 17.4168 26.8333 18.3335 26.8333C18.8335 26.8333 19.1668 27.1666 19.1668 27.6666ZM12.1668 31.4166C11.6668 32.25 10.8335 32.6666 10.0002 32.6666C9.5835 32.6666 9.16683 32.5833 8.75016 32.3333C8.3335 32.0833 8.0835 31.8333 7.8335 31.4166C7.5835 31 7.75016 30.5 8.16683 30.25C8.5835 30 9.0835 30.1666 9.3335 30.5833C9.35872 30.6085 9.38395 30.6414 9.41149 30.6773L9.4115 30.6773C9.47493 30.7599 9.55062 30.8585 9.66683 30.9166C10.0835 31.1666 10.5835 31 10.8335 30.5833C11.0835 30.1666 11.5835 30.0833 12.0002 30.25C12.4168 30.4166 12.4168 31 12.1668 31.4166ZM15.0002 25.1666C15.0002 25.75 15.1668 26.3333 15.4168 26.8333H4.5835C4.8335 26.3333 5.00016 25.75 5.00016 25.1666V21C5.00016 18.25 7.25016 16 10.0002 16C12.7502 16 15.0002 18.25 15.0002 21V25.1666Z" fill="white"/>
</mask>
<g mask="url(#mask0_646_2456)">
<rect y="13.5" width="20" height="20" fill="#1F2855"/>
</g>
<circle cx="19" cy="14.5" r="9" fill="#D2000F"/>
<path d="M14.8357 16.592V15.512L18.9757 10.1H20.6437L16.5637 15.512L15.7837 15.272H22.4437V16.592H14.8357ZM19.4437 18.5V16.592L19.4917 15.272V13.58H20.9557V18.5H19.4437Z" fill="white"/>
</svg>
