<svg width="25" height="25" viewBox="0 0 25 25" fill="none" xmlns="http://www.w3.org/2000/svg">
<path fill-rule="evenodd" clip-rule="evenodd" d="M17.9168 16.4583L22.6043 21.1458C23.021 21.5625 23.021 22.1875 22.6043 22.6041C22.396 22.8125 22.0835 22.9166 21.8752 22.9166C21.6668 22.9166 21.3543 22.8125 21.146 22.6041L16.4585 17.9166C14.896 19.0625 13.021 19.7916 10.9377 19.7916C6.04183 19.7916 2.0835 15.8333 2.0835 10.9375C2.0835 6.04165 6.04183 2.08331 10.9377 2.08331C15.8335 2.08331 19.7918 6.04165 19.7918 10.9375C19.7918 13.0208 19.0627 15 17.9168 16.4583ZM10.9377 4.16665C7.18766 4.16665 4.16683 7.18748 4.16683 10.9375C4.16683 14.6875 7.18766 17.7083 10.9377 17.7083C12.8127 17.7083 14.4793 16.9791 15.7293 15.7291C16.9793 14.4791 17.7085 12.8125 17.7085 10.9375C17.7085 7.18748 14.6877 4.16665 10.9377 4.16665Z" fill="black"/>
<mask id="mask0_646_2446" style="mask-type:alpha" maskUnits="userSpaceOnUse" x="2" y="2" width="21" height="21">
<path fill-rule="evenodd" clip-rule="evenodd" d="M17.9168 16.4583L22.6043 21.1458C23.021 21.5625 23.021 22.1875 22.6043 22.6041C22.396 22.8125 22.0835 22.9166 21.8752 22.9166C21.6668 22.9166 21.3543 22.8125 21.146 22.6041L16.4585 17.9166C14.896 19.0625 13.021 19.7916 10.9377 19.7916C6.04183 19.7916 2.0835 15.8333 2.0835 10.9375C2.0835 6.04165 6.04183 2.08331 10.9377 2.08331C15.8335 2.08331 19.7918 6.04165 19.7918 10.9375C19.7918 13.0208 19.0627 15 17.9168 16.4583ZM10.9377 4.16665C7.18766 4.16665 4.16683 7.18748 4.16683 10.9375C4.16683 14.6875 7.18766 17.7083 10.9377 17.7083C12.8127 17.7083 14.4793 16.9791 15.7293 15.7291C16.9793 14.4791 17.7085 12.8125 17.7085 10.9375C17.7085 7.18748 14.6877 4.16665 10.9377 4.16665Z" fill="white"/>
</mask>
<g mask="url(#mask0_646_2446)">
<rect width="25" height="25" fill="#1F2855"/>
</g>
</svg>
