<svg width="26" height="25" viewBox="0 0 26 25" fill="none" xmlns="http://www.w3.org/2000/svg">
<path fill-rule="evenodd" clip-rule="evenodd" d="M18.3358 16.4583L23.0233 21.1458C23.4399 21.5625 23.4399 22.1875 23.0233 22.6041C22.8149 22.8125 22.5024 22.9166 22.2941 22.9166C22.0858 22.9166 21.7733 22.8125 21.5649 22.6041L16.8774 17.9166C15.3149 19.0625 13.4399 19.7916 11.3566 19.7916C6.46077 19.7916 2.50244 15.8333 2.50244 10.9375C2.50244 6.04165 6.46077 2.08331 11.3566 2.08331C16.2524 2.08331 20.2108 6.04165 20.2108 10.9375C20.2108 13.0208 19.4816 15 18.3358 16.4583ZM11.3566 4.16665C7.60661 4.16665 4.58577 7.18748 4.58577 10.9375C4.58577 14.6875 7.60661 17.7083 11.3566 17.7083C13.2316 17.7083 14.8983 16.9791 16.1483 15.7291C17.3983 14.4791 18.1274 12.8125 18.1274 10.9375C18.1274 7.18748 15.1066 4.16665 11.3566 4.16665Z" fill="#D2000F"/>
<mask id="mask0_646_2511" style="mask-type:alpha" maskUnits="userSpaceOnUse" x="2" y="2" width="22" height="21">
<path fill-rule="evenodd" clip-rule="evenodd" d="M18.3358 16.4583L23.0233 21.1458C23.4399 21.5625 23.4399 22.1875 23.0233 22.6041C22.8149 22.8125 22.5024 22.9166 22.2941 22.9166C22.0858 22.9166 21.7733 22.8125 21.5649 22.6041L16.8774 17.9166C15.3149 19.0625 13.4399 19.7916 11.3566 19.7916C6.46077 19.7916 2.50244 15.8333 2.50244 10.9375C2.50244 6.04165 6.46077 2.08331 11.3566 2.08331C16.2524 2.08331 20.2108 6.04165 20.2108 10.9375C20.2108 13.0208 19.4816 15 18.3358 16.4583ZM11.3566 4.16665C7.60661 4.16665 4.58577 7.18748 4.58577 10.9375C4.58577 14.6875 7.60661 17.7083 11.3566 17.7083C13.2316 17.7083 14.8983 16.9791 16.1483 15.7291C17.3983 14.4791 18.1274 12.8125 18.1274 10.9375C18.1274 7.18748 15.1066 4.16665 11.3566 4.16665Z" fill="white"/>
</mask>
<g mask="url(#mask0_646_2511)">
<rect x="0.418945" width="25" height="25" fill="#D2000F"/>
</g>
</svg>
